<?xml version="1.0" encoding="utf-8" ?>
<svg xmlns="http://www.w3.org/2000/svg" xmlns:xlink="http://www.w3.org/1999/xlink" width="310" height="61">
	<path fill="rgb(74,192,116)" stroke="none" transform="translate(156.57 0.999695)" d="M2.40207 15.949C6.21307 13.013 9.82607 10.147 11.2751 5.423C7.80607 8.484 4.33707 11.544 0.761067 14.699C-1.20193 10.451 0.775067 5.55 5.05207 3.552C7.90707 2.219 10.8921 1.167 13.7921 0C16.0411 3.006 15.9681 8.53 13.6991 12.102C11.4201 15.69 7.49607 17.106 2.40207 15.949"/>
	<path fill="rgb(255,255,255)" stroke="none" transform="translate(0 21.3421)" d="M156.625 0C165.663 0 172.698 6.90098 172.698 15.5829C172.698 24.3093 165.663 31.1657 156.625 31.1657C147.587 31.1657 140.552 24.3093 140.552 15.5829C140.552 6.90098 147.587 0 156.625 0ZM192.233 23.4633C195.661 23.4633 198.155 21.4598 199.001 17.809L207.549 19.4563C206.258 26.7135 200.381 31.1657 192.233 31.1657C183.195 31.1657 176.161 24.3093 176.161 15.5829C176.161 6.85646 183.195 0 192.233 0C199.713 0 206.169 4.40772 207.549 11.3977L199.001 13.1341C198.155 9.61685 195.661 7.70239 192.233 7.70239C188.048 7.70239 184.798 11.1306 184.798 15.5829C184.798 20.0351 188.048 23.4633 192.233 23.4633ZM23.7305 30.4979L23.7305 23.2852L8.54831 23.2852L8.54831 18.833L22.3503 18.833L22.3503 12.2882L8.54831 12.2882L8.54831 7.88048L23.5524 7.88048L23.5524 0.667837L0 0.667837L0 30.4979L23.7305 30.4979ZM57.6022 30.4979L57.6022 0.667837L49.0093 0.667837L49.0093 16.5624L35.2964 0.667837L28.2619 0.667837L28.2619 30.4979L36.8102 30.4979L36.8102 15.1376L50.5231 30.4979L57.6022 30.4979ZM94.0117 0.667837L81.5008 30.4979L73.0861 30.4979L60.5753 0.667837L70.1031 0.667837L77.3157 18.4768L84.4838 0.667837L94.0117 0.667837ZM97.0293 30.4979L105.578 30.4979L105.578 0.667837L97.0293 0.667837L97.0293 30.4979ZM138.737 30.4979L128.452 30.4979L120.26 20.9701L119.103 20.9701L119.103 30.4979L110.554 30.4979L110.554 0.667837L126.449 0.667837C132.86 0.667837 137.179 4.67486 137.179 10.6854C137.179 15.4938 134.418 19.0556 130.011 20.3913L138.737 30.4979ZM235.499 30.4979L235.499 23.2852L220.317 23.2852L220.317 18.833L234.119 18.833L234.119 12.2882L220.317 12.2882L220.317 7.88048L235.321 7.88048L235.321 0.667837L211.769 0.667837L211.769 30.4979L235.499 30.4979ZM248.579 30.4979L240.03 30.4979L240.03 0.667837L248.579 0.667837L248.579 30.4979ZM269.005 0.667837L253.555 0.667837L253.555 30.4979L262.104 30.4979L262.104 21.9941L268.381 21.9941C275.371 21.9941 279.913 17.6754 279.913 11.1751C279.913 4.94199 275.639 0.667837 269.005 0.667837ZM300.65 8.01404L310 8.01404L310 0.667837L282.708 0.667837L282.708 8.01404L292.057 8.01404L292.057 30.4979L300.65 30.4979L300.65 8.01404ZM164.06 15.5829C164.06 20.0796 160.944 23.4633 156.625 23.4633C152.306 23.4633 149.19 20.0796 149.19 15.5829C149.19 11.1306 152.306 7.70239 156.625 7.70239C160.944 7.70239 164.06 11.1306 164.06 15.5829ZM124.846 14.2027L119.103 14.2027L119.103 7.74691L124.846 7.74691C127.25 7.74691 128.764 9.03806 128.764 10.908C128.764 12.867 127.25 14.2027 124.846 14.2027ZM262.104 15.2267L267.357 15.2267C269.717 15.2267 271.498 13.7129 271.498 11.3977C271.498 9.26067 269.717 7.74691 267.357 7.74691L262.104 7.74691L262.104 15.2267Z" fill-rule="evenodd"/>
	<path fill="rgb(74,192,116)" stroke="none" transform="translate(144.117 11.4662)" d="M9.04882 5.86784C6.81782 4.75784 5.50282 2.39984 2.72182 2.02284C4.57682 3.95984 6.17882 5.62984 7.88382 7.40884C5.22182 8.57984 3.17882 7.96284 1.73182 5.61884C0.985818 4.40984 0.478818 3.03184 0.0218184 1.67584C-0.0951816 1.32984 0.280818 0.498842 0.614818 0.370842C3.84682 -0.870158 9.42582 1.01384 9.04882 5.86784"/>

</svg>